<?xml version="1.0" standalone="no"?>
<!DOCTYPE svg PUBLIC "-//W3C//DTD SVG 20010904//EN"
 "http://www.w3.org/TR/2001/REC-SVG-20010904/DTD/svg10.dtd">
<svg version="1.0" xmlns="http://www.w3.org/2000/svg"
 width="1000.000000pt" height="1000.000000pt" viewBox="0 0 1000.000000 1000.000000"
 preserveAspectRatio="xMidYMid meet">

<g transform="translate(0.000000,1000.000000) scale(0.100000,-0.100000)"
fill="#000000" stroke="none">
<path d="M0 5000 l0 -5000 5000 0 5000 0 0 5000 0 5000 -5000 0 -5000 0 0
-5000z m9838 3 l2 -4833 -22 -5 c-36 -9 -9632 -1 -9646 8 -9 7 -12 984 -12
4831 0 2652 3 4826 7 4829 3 4 2180 6 4837 5 l4831 -3 3 -4832z"/>
<path d="M381 7629 c1 -1097 5 -2126 8 -2286 l6 -293 135 81 c74 45 285 169
469 276 697 406 940 576 1225 853 177 172 283 298 404 480 112 168 196 320
286 516 135 297 221 544 421 1209 125 419 268 852 340 1037 21 54 35 101 31
105 -4 5 -754 10 -1667 12 l-1659 3 1 -1993z"/>
<path d="M5179 9613 l-57 -4 -7 -142 c-3 -78 -5 -842 -3 -1697 l3 -1555 195
-5 195 -5 425 -334 c777 -612 921 -730 911 -749 -5 -9 -53 -75 -106 -147 -179
-239 -289 -448 -367 -692 -23 -73 -47 -133 -53 -133 -13 0 -120 193 -479 860
l-244 455 -38 3 c-104 9 -305 -71 -394 -158 l-50 -49 0 -66 c0 -216 45 -609
101 -889 68 -338 225 -835 299 -946 l16 -23 174 57 c249 81 826 277 839 285 5
4 17 67 26 141 59 506 272 895 736 1345 63 61 242 223 399 359 340 297 636
590 732 726 82 116 176 296 212 407 15 45 33 86 39 91 7 5 64 15 127 21 146
15 215 33 315 81 96 46 181 121 265 232 89 118 114 171 114 243 1 102 -51 162
-149 172 l-53 6 -50 -99 c-64 -127 -131 -216 -204 -270 -111 -82 -87 -79 -748
-79 -585 0 -585 0 -653 -23 -94 -32 -136 -73 -190 -185 -76 -159 -166 -228
-324 -249 -64 -9 -107 -9 -177 0 -102 13 -258 54 -296 79 l-24 16 49 44 c55
50 113 83 148 83 44 0 141 31 173 55 17 13 37 38 44 55 18 43 -5 90 -60 126
-35 23 -55 28 -125 32 -128 7 -202 -25 -235 -103 -18 -43 -97 -120 -154 -150
-30 -16 -36 -16 -89 -1 -92 27 -163 105 -169 187 -3 28 2 36 31 53 19 12 47
33 62 48 25 23 29 34 29 83 0 70 -9 86 -65 125 -39 27 -45 36 -45 67 0 39 37
119 76 166 48 57 523 443 1059 861 289 225 364 277 565 391 85 49 180 103 210
120 l55 31 7 108 c3 59 19 201 34 317 15 115 24 213 20 217 -8 7 -2974 12
-3077 5z"/>
<path d="M8597 9611 l-29 -6 71 -85 c90 -107 154 -235 177 -349 20 -100 15
-177 -17 -305 -21 -85 -21 -89 -4 -102 25 -18 96 -28 151 -19 59 9 127 72 145
137 15 51 18 245 5 342 l-9 68 74 -4 c41 -3 156 -15 257 -29 160 -21 184 -22
192 -9 5 8 10 85 10 171 0 118 -3 160 -14 175 -14 18 -32 19 -498 20 -266 1
-496 -1 -511 -5z"/>
<path d="M7663 8275 c-38 -16 -88 -89 -98 -142 -8 -46 14 -79 80 -112 55 -29
136 -33 225 -11 67 15 200 75 200 89 0 31 -187 148 -279 175 -66 19 -86 19
-128 1z"/>
<path d="M4834 5808 c-40 -78 -140 -245 -219 -368 -180 -282 -442 -560 -730
-776 -179 -135 -364 -251 -910 -569 -647 -377 -856 -519 -1112 -757 -261 -241
-435 -461 -624 -790 -193 -336 -329 -658 -604 -1428 -70 -195 -156 -433 -191
-528 -35 -96 -61 -178 -58 -184 11 -17 287 14 519 58 700 134 1362 418 1941
834 391 280 788 670 1074 1053 197 266 340 502 486 802 236 488 378 967 450
1519 20 161 26 265 36 662 10 444 8 544 -11 544 -5 0 -26 -33 -47 -72z"/>
<path d="M8029 3008 c-9 -7 -32 -40 -52 -73 -19 -33 -71 -95 -115 -137 -131
-128 -239 -165 -442 -153 -287 16 -1396 75 -1472 77 -48 1 -90 0 -94 -4 -15
-16 167 -288 330 -492 133 -167 332 -382 472 -512 633 -584 1352 -978 2168
-1184 216 -54 286 -67 286 -52 0 15 -163 166 -264 244 -174 135 -294 209 -821
508 -620 352 -893 588 -1116 965 -67 112 -89 169 -72 186 8 8 66 8 206 0 107
-6 296 -11 420 -11 222 0 227 0 305 28 116 41 182 85 292 192 117 114 143 160
144 250 1 71 -19 118 -64 152 -34 25 -90 33 -111 16z"/>
<path d="M4195 2380 c-12 -4 -26 -14 -32 -22 -29 -34 -63 -249 -45 -276 7 -10
15 -10 37 -2 15 6 62 13 104 17 105 8 115 13 130 65 7 23 28 68 47 100 19 31
34 61 34 66 0 14 -81 40 -165 52 -82 11 -84 11 -110 0z"/>
<path d="M5790 2384 c-70 -8 -179 -35 -188 -47 -8 -9 0 -28 24 -67 19 -30 42
-78 51 -106 l16 -51 76 -7 c42 -3 97 -13 123 -20 25 -8 49 -12 52 -9 12 12 6
125 -10 193 -23 104 -49 124 -144 114z"/>
<path d="M4885 2354 c-134 -29 -239 -94 -297 -183 l-30 -46 6 -117 6 -116 -27
-22 c-34 -26 -65 -22 -125 17 -37 25 -51 28 -122 28 -65 0 -90 -5 -130 -24
-102 -50 -202 -183 -253 -336 -24 -70 -27 -96 -28 -210 0 -128 1 -132 33 -197
52 -105 126 -158 224 -158 50 0 66 -8 83 -41 26 -50 19 -74 -35 -120 -27 -23
-59 -61 -70 -84 -39 -81 -19 -225 44 -322 l20 -31 171 -7 c93 -3 473 -5 843
-3 l674 3 23 27 c31 37 66 131 72 198 8 86 -9 130 -83 210 -68 75 -71 85 -38
137 15 24 28 28 108 37 97 12 175 81 213 189 24 71 24 247 -1 337 -44 163
-152 311 -268 369 -99 50 -182 42 -289 -26 -23 -14 -31 -15 -58 -3 -54 22 -61
43 -49 140 14 109 3 152 -58 219 -109 122 -348 179 -559 135z m280 -559 c116
-24 208 -76 300 -169 130 -130 185 -260 185 -433 0 -174 -58 -313 -181 -435
-256 -252 -632 -248 -882 10 -103 107 -176 280 -177 418 0 102 44 243 108 344
76 119 231 231 369 264 77 19 191 19 278 1z"/>
<path d="M4903 1552 c-74 -26 -130 -69 -178 -133 -56 -75 -68 -123 -63 -250 4
-125 24 -173 103 -248 129 -122 286 -148 441 -71 76 37 136 101 177 188 27 59
31 77 31 152 0 112 -27 180 -101 260 -78 85 -141 113 -263 117 -74 3 -107 -1
-147 -15z"/>
<path d="M3754 988 c-35 -38 -70 -99 -94 -166 -19 -51 -21 -67 -12 -87 19 -42
185 -135 241 -135 19 0 31 34 31 90 0 16 9 56 19 89 l19 61 -42 31 c-22 18
-63 56 -91 86 l-50 55 -21 -24z"/>
<path d="M6225 946 c-33 -34 -73 -72 -88 -83 l-29 -19 21 -68 c12 -38 21 -89
21 -115 0 -70 7 -76 69 -51 131 51 201 104 201 151 0 41 -44 145 -85 202 -20
26 -39 47 -43 47 -4 -1 -34 -29 -67 -64z"/>
</g>
</svg>
